<mxfile host="65bd71144e">
    <diagram id="Fwt0_S80Y8OOaiC3SIRB" name="第 1 页">
        <mxGraphModel dx="588" dy="509" grid="1" gridSize="10" guides="1" tooltips="1" connect="1" arrows="1" fold="1" page="1" pageScale="1" pageWidth="827" pageHeight="1169" math="0" shadow="0">
            <root>
                <mxCell id="0"/>
                <mxCell id="1" parent="0"/>
                <mxCell id="2" value="main" style="shape=folder;fontStyle=1;tabWidth=80;tabHeight=30;tabPosition=left;html=1;boundedLbl=1;" parent="1" vertex="1">
                    <mxGeometry x="60" y="30" width="150" height="80" as="geometry"/>
                </mxCell>
                <mxCell id="5" value="i18n" style="shape=folder;fontStyle=1;tabWidth=80;tabHeight=30;tabPosition=left;html=1;boundedLbl=1;" vertex="1" parent="1">
                    <mxGeometry x="240" y="320" width="150" height="80" as="geometry"/>
                </mxCell>
                <mxCell id="14" value="tray" style="shape=folder;xSize=90;align=left;spacingLeft=10;align=left;verticalAlign=top;spacingLeft=5;spacingTop=-4;tabWidth=70;tabHeight=20;tabPosition=left;html=1;strokeWidth=1;recursiveResize=0;" vertex="1" parent="1">
                    <mxGeometry x="480" y="220" width="320" height="90" as="geometry"/>
                </mxCell>
                <mxCell id="15" value="&lt;br&gt;tray" style="strokeColor=inherit;fillColor=inherit;gradientColor=inherit;shape=folder;spacingLeft=10;tabWidth=40;tabHeight=14;tabPosition=left;fontSize=10;html=1;whiteSpace=wrap;" vertex="1" parent="14">
                    <mxGeometry x="15" y="30" width="100" height="50" as="geometry"/>
                </mxCell>
                <mxCell id="16" value="&lt;br&gt;menus" style="strokeColor=inherit;fillColor=inherit;gradientColor=inherit;shape=folder;spacingLeft=10;tabWidth=40;tabHeight=14;tabPosition=left;fontSize=10;html=1;whiteSpace=wrap;" vertex="1" parent="14">
                    <mxGeometry x="190" y="30" width="100" height="50" as="geometry"/>
                </mxCell>
                <mxCell id="17" value="&amp;lt;&amp;lt;import&amp;gt;&amp;gt;" style="strokeColor=inherit;fillColor=inherit;gradientColor=inherit;edgeStyle=none;endArrow=open;dashed=1;verticalAlign=top;labelBackgroundColor=none;endSize=12;html=1;" edge="1" parent="14" source="15" target="16">
                    <mxGeometry relative="1" as="geometry"/>
                </mxCell>
                <mxCell id="18" value="web" style="shape=folder;xSize=90;align=left;spacingLeft=10;align=left;verticalAlign=top;spacingLeft=5;spacingTop=-4;tabWidth=70;tabHeight=20;tabPosition=left;html=1;strokeWidth=1;recursiveResize=0;" vertex="1" parent="1">
                    <mxGeometry x="480" y="410" width="300" height="250" as="geometry"/>
                </mxCell>
                <mxCell id="19" value="&lt;br&gt;web" style="strokeColor=inherit;fillColor=inherit;gradientColor=inherit;shape=folder;spacingLeft=10;tabWidth=40;tabHeight=14;tabPosition=left;fontSize=10;html=1;whiteSpace=wrap;" vertex="1" parent="18">
                    <mxGeometry x="15" y="100" width="100" height="50" as="geometry"/>
                </mxCell>
                <mxCell id="20" value="&lt;br&gt;api" style="strokeColor=inherit;fillColor=inherit;gradientColor=inherit;shape=folder;spacingLeft=10;tabWidth=40;tabHeight=14;tabPosition=left;fontSize=10;html=1;whiteSpace=wrap;" vertex="1" parent="18">
                    <mxGeometry x="190" y="30" width="100" height="50" as="geometry"/>
                </mxCell>
                <mxCell id="21" value="&amp;lt;&amp;lt;import&amp;gt;&amp;gt;" style="strokeColor=inherit;fillColor=inherit;gradientColor=inherit;edgeStyle=none;endArrow=open;dashed=1;verticalAlign=top;labelBackgroundColor=none;endSize=12;html=1;" edge="1" parent="18" source="19" target="20">
                    <mxGeometry x="-0.0115" y="32" relative="1" as="geometry">
                        <mxPoint as="offset"/>
                    </mxGeometry>
                </mxCell>
                <mxCell id="25" value="&lt;br&gt;middleware" style="strokeColor=inherit;fillColor=inherit;gradientColor=inherit;shape=folder;spacingLeft=10;tabWidth=40;tabHeight=14;tabPosition=left;fontSize=10;html=1;whiteSpace=wrap;" vertex="1" parent="18">
                    <mxGeometry x="190" y="170" width="100" height="50" as="geometry"/>
                </mxCell>
                <mxCell id="27" value="&amp;lt;&amp;lt;import&amp;gt;&amp;gt;" style="strokeColor=inherit;fillColor=inherit;gradientColor=inherit;edgeStyle=none;endArrow=open;dashed=1;verticalAlign=top;labelBackgroundColor=none;endSize=12;html=1;jumpStyle=none;" edge="1" parent="18" source="19" target="25">
                    <mxGeometry x="-0.1954" y="-14" relative="1" as="geometry">
                        <mxPoint x="125" y="135" as="sourcePoint"/>
                        <mxPoint x="200" y="135" as="targetPoint"/>
                        <mxPoint as="offset"/>
                    </mxGeometry>
                </mxCell>
                <mxCell id="22" value="&lt;br&gt;auth" style="strokeColor=inherit;fillColor=inherit;gradientColor=inherit;shape=folder;spacingLeft=10;tabWidth=40;tabHeight=14;tabPosition=left;fontSize=10;html=1;whiteSpace=wrap;" vertex="1" parent="1">
                    <mxGeometry x="670" y="510" width="100" height="50" as="geometry"/>
                </mxCell>
                <mxCell id="24" value="&amp;lt;&amp;lt;import&amp;gt;&amp;gt;" style="strokeColor=inherit;fillColor=inherit;gradientColor=inherit;edgeStyle=none;endArrow=open;dashed=1;verticalAlign=top;labelBackgroundColor=none;endSize=12;html=1;jumpStyle=none;" edge="1" parent="1" source="19" target="22">
                    <mxGeometry relative="1" as="geometry">
                        <mxPoint x="605" y="475" as="sourcePoint"/>
                        <mxPoint x="680" y="475" as="targetPoint"/>
                    </mxGeometry>
                </mxCell>
                <mxCell id="28" value="&amp;lt;&amp;lt;import&amp;gt;&amp;gt;" style="edgeStyle=orthogonalEdgeStyle;html=1;endArrow=open;endSize=12;dashed=1;verticalAlign=bottom;jumpStyle=none;" edge="1" parent="1" source="2" target="15">
                    <mxGeometry width="160" relative="1" as="geometry">
                        <mxPoint x="490" y="80" as="sourcePoint"/>
                        <mxPoint x="650" y="80" as="targetPoint"/>
                    </mxGeometry>
                </mxCell>
                <mxCell id="30" value="&amp;lt;&amp;lt;import&amp;gt;&amp;gt;" style="edgeStyle=orthogonalEdgeStyle;html=1;endArrow=open;endSize=12;dashed=1;verticalAlign=bottom;jumpStyle=none;" edge="1" parent="1" source="15" target="19">
                    <mxGeometry width="160" relative="1" as="geometry">
                        <mxPoint x="410" y="100" as="sourcePoint"/>
                        <mxPoint x="650" y="240" as="targetPoint"/>
                    </mxGeometry>
                </mxCell>
                <mxCell id="32" value="model" style="shape=folder;fontStyle=1;tabWidth=80;tabHeight=30;tabPosition=left;html=1;boundedLbl=1;" vertex="1" parent="1">
                    <mxGeometry x="220" y="760" width="150" height="80" as="geometry"/>
                </mxCell>
                <mxCell id="33" value="utils" style="shape=folder;fontStyle=1;tabWidth=80;tabHeight=30;tabPosition=left;html=1;boundedLbl=1;" vertex="1" parent="1">
                    <mxGeometry x="140" y="910" width="150" height="80" as="geometry"/>
                </mxCell>
                <mxCell id="34" value="app" style="shape=folder;fontStyle=1;tabWidth=80;tabHeight=30;tabPosition=left;html=1;boundedLbl=1;" vertex="1" parent="1">
                    <mxGeometry x="60" y="495" width="150" height="80" as="geometry"/>
                </mxCell>
                <mxCell id="35" value="&amp;lt;&amp;lt;import&amp;gt;&amp;gt;" style="edgeStyle=orthogonalEdgeStyle;html=1;endArrow=open;endSize=12;dashed=1;verticalAlign=bottom;jumpStyle=none;" edge="1" parent="1" source="19" target="34">
                    <mxGeometry width="160" relative="1" as="geometry">
                        <mxPoint x="640" y="320" as="sourcePoint"/>
                        <mxPoint x="640" y="420" as="targetPoint"/>
                    </mxGeometry>
                </mxCell>
                <mxCell id="36" value="&amp;lt;&amp;lt;import&amp;gt;&amp;gt;" style="html=1;endArrow=open;endSize=12;dashed=1;verticalAlign=bottom;jumpStyle=none;edgeStyle=orthogonalEdgeStyle;" edge="1" parent="1" source="34" target="16">
                    <mxGeometry width="160" relative="1" as="geometry">
                        <mxPoint x="640" y="670" as="sourcePoint"/>
                        <mxPoint x="790" y="360" as="targetPoint"/>
                        <Array as="points">
                            <mxPoint x="135" y="700"/>
                            <mxPoint x="840" y="700"/>
                            <mxPoint x="840" y="275"/>
                        </Array>
                    </mxGeometry>
                </mxCell>
                <mxCell id="38" value="&amp;lt;&amp;lt;import&amp;gt;&amp;gt;" style="edgeStyle=orthogonalEdgeStyle;html=1;endArrow=open;endSize=12;dashed=1;verticalAlign=bottom;jumpStyle=none;" edge="1" parent="1" source="32" target="33">
                    <mxGeometry width="160" relative="1" as="geometry">
                        <mxPoint x="230" y="400.04761904761904" as="sourcePoint"/>
                        <mxPoint x="105.04761904761904" y="770" as="targetPoint"/>
                    </mxGeometry>
                </mxCell>
                <mxCell id="39" value="&amp;lt;&amp;lt;import&amp;gt;&amp;gt;" style="edgeStyle=orthogonalEdgeStyle;html=1;endArrow=open;endSize=12;dashed=1;verticalAlign=bottom;jumpStyle=none;" edge="1" parent="1" source="2" target="34">
                    <mxGeometry width="160" relative="1" as="geometry">
                        <mxPoint x="375" y="300" as="sourcePoint"/>
                        <mxPoint x="375" y="510" as="targetPoint"/>
                    </mxGeometry>
                </mxCell>
                <mxCell id="40" value="&amp;lt;&amp;lt;import&amp;gt;&amp;gt;" style="edgeStyle=orthogonalEdgeStyle;html=1;endArrow=open;endSize=12;dashed=1;verticalAlign=bottom;jumpStyle=none;" edge="1" parent="1" source="15" target="5">
                    <mxGeometry width="160" relative="1" as="geometry">
                        <mxPoint x="555" y="310" as="sourcePoint"/>
                        <mxPoint x="555" y="520" as="targetPoint"/>
                    </mxGeometry>
                </mxCell>
                <mxCell id="41" value="&amp;lt;&amp;lt;import&amp;gt;&amp;gt;" style="edgeStyle=orthogonalEdgeStyle;html=1;endArrow=open;endSize=12;dashed=1;verticalAlign=bottom;jumpStyle=none;" edge="1" parent="1" source="16" target="5">
                    <mxGeometry width="160" relative="1" as="geometry">
                        <mxPoint x="505" y="285" as="sourcePoint"/>
                        <mxPoint x="325.04761904761904" y="330" as="targetPoint"/>
                        <Array as="points">
                            <mxPoint x="720" y="370"/>
                        </Array>
                    </mxGeometry>
                </mxCell>
                <mxCell id="42" value="&amp;lt;&amp;lt;import&amp;gt;&amp;gt;" style="edgeStyle=none;html=1;endArrow=open;endSize=12;dashed=1;verticalAlign=bottom;jumpStyle=none;" edge="1" parent="1" source="34" target="5">
                    <mxGeometry width="160" relative="1" as="geometry">
                        <mxPoint x="260" y="470" as="sourcePoint"/>
                        <mxPoint x="420" y="470" as="targetPoint"/>
                    </mxGeometry>
                </mxCell>
            </root>
        </mxGraphModel>
    </diagram>
</mxfile>
